# xmcd
#
# Track frame offsets: 
#        150
#        21757
#        42376
#        60876
#        81114
#        103606
#        123847
#        143154
#        162941
#        181099
#        202559
#        224709
#        244294
#
# Disc length: 3500 seconds
#
# Revision: 5
# Processed by: cddbd v1.5.2PL0 Copyright (c) Steve Scherf et al.
# Submitted via: ExactAudioCopy v1.3
#
DISCID=a80daa0d
DTITLE=Mary Chapin Carpenter - Ashes and Roses
DYEAR=2012
DGENRE=Country
TTITLE0=Transcendental Reunion
TTITLE1=What to Keep and What to Throw Away
TTITLE2=The Swords We Carried
TTITLE3=Another Home
TTITLE4=Chasing What's Already Gone
TTITLE5=Learning the World
TTITLE6=I Tried Going West
TTITLE7=Don't Need Much to Be Happy
TTITLE8=Soul Companion
TTITLE9=Old Love
TTITLE10=New Year's Day
TTITLE11=Fading Away
TTITLE12=Jericho
EXTD=
EXTT0=
EXTT1=
EXTT2=
EXTT3=
EXTT4=
EXTT5=
EXTT6=
EXTT7=
EXTT8=
EXTT9=
EXTT10=
EXTT11=
EXTT12=
PLAYORDER=
